<svg width="572" height="539" viewBox="0 0 572 539" fill="none" xmlns="http://www.w3.org/2000/svg">
<g clip-path="url(#clip0_5_286)">
<path d="M416.73 81.79C416.73 81.79 416.48 102.12 435.1 104.43C435.1 104.43 433.33 86.94 416.73 81.79Z" fill="black" stroke="black" stroke-miterlimit="10"/>
<path d="M403.29 67.44C403.29 67.44 415.16 81.17 429.92 70.16C429.92 70.16 417.52 58.94 403.29 67.44Z" fill="black" stroke="black" stroke-miterlimit="10"/>
<path d="M397.55 72.34C397.55 72.34 394.67 91.26 410.66 102.34C410.66 102.36 411.89 82.06 397.55 72.34Z" fill="black" stroke="black" stroke-miterlimit="10"/>
<path d="M376.14 49.31C376.14 49.31 392.4 69.13 412.61 50.21C412.61 50.21 389.72 37.07 376.14 49.31Z" fill="black" stroke="black" stroke-miterlimit="10"/>
<path d="M372.8 57.07C372.8 57.07 366.53 83.15 391.39 92.9C391.39 92.9 391.25 64.16 372.8 57.07Z" fill="black" stroke="black" stroke-miterlimit="10"/>
<path d="M342.1 36.84C342.1 36.84 366.21 51.76 382 26.55C382 26.55 358.54 12.84 342.1 36.84Z" fill="black" stroke="black" stroke-miterlimit="10"/>
<path d="M340 43.63C340 43.63 341.37 73.73 367.12 79.73C367.14 79.73 365.5 51.43 340 43.63Z" fill="black" stroke="black" stroke-miterlimit="10"/>
<path d="M301.48 31.45C301.48 31.45 334.48 44.56 344.48 8.45C344.53 8.45 313.31 -0.209999 301.48 31.45Z" fill="black" stroke="black" stroke-miterlimit="10"/>
<path d="M299.57 41.53C299.57 41.53 309.48 77.7 339.57 74.29C339.53 74.29 335.63 41.77 299.57 41.53Z" fill="black" stroke="black" stroke-miterlimit="10"/>
<path d="M258.9 43.73C258.9 43.73 274.9 77.52 307.34 67.99C307.34 68 291.72 33.18 258.9 43.73Z" fill="black" stroke="black" stroke-miterlimit="10"/>
<path d="M259.28 36.9C259.28 36.9 290.9 39 298.94 0.59C298.94 0.59 261.09 5.89 259.28 36.9Z" fill="black" stroke="black" stroke-miterlimit="10"/>
<path d="M216.37 67.66C216.37 67.66 232.37 103.86 272.98 80.78C273 80.78 248.64 48.63 216.37 67.66Z" fill="black" stroke="black" stroke-miterlimit="10"/>
<path d="M215.05 59.83C215.05 59.83 250.56 53.05 250.19 5.48C250.19 5.48 209.18 24.24 215.05 59.83Z" fill="black" stroke="black" stroke-miterlimit="10"/>
<path d="M210.69 62.36C210.69 62.36 197 68 195.5 69C194 70 205.4 45.44 198.98 27.85C198.98 27.85 165.98 44.17 172.08 83.75C172.08 83.75 161.75 93.31 159.08 98.26C159.08 98.26 160.22 71.48 152.84 58.93C152.84 58.93 130.69 78.49 136.2 120.02C136.2 120.02 127.9 130.38 128.09 134.18C128.09 134.18 122.3 115.18 114.98 104.18C114.98 104.18 92.22 134.41 107.98 168.97C107.98 168.97 70.76 312.89 216.89 364.05C216.89 364.05 118.58 321.24 115.69 231.2C115.69 231.2 141.1 225.72 145.38 185.2C145.38 185.2 119.38 193.59 113.21 203.2C113.21 203.2 115.7 187.8 117.98 182.68C117.98 182.68 162.52 185.4 168.77 147.16C168.77 147.16 144.57 143.41 122.77 164.09C122.76 164 139 111.38 210.69 62.36Z" fill="black" stroke="black" stroke-miterlimit="10"/>
<path d="M144.68 134.26C144.68 134.26 180.19 156.26 198.15 115.67C198.15 115.67 163 98.83 144.68 134.26Z" fill="black" stroke="black" stroke-miterlimit="10"/>
<path d="M178.65 96.16C178.65 96.16 204.79 125.47 234 92.7C234 92.7 206.55 67.34 178.65 96.16Z" fill="black" stroke="black" stroke-miterlimit="10"/>
<path d="M1.06 442.84L102.88 341.02" stroke="black" stroke-width="3" stroke-miterlimit="10"/>
<path d="M154.93 379.8C154.93 379.8 155.18 359.47 136.56 357.16C136.56 357.16 138.33 374.66 154.93 379.8Z" fill="black" stroke="black" stroke-miterlimit="10"/>
<path d="M168.37 394.16C168.37 394.16 156.5 380.42 141.74 391.43C141.74 391.43 154.14 402.65 168.37 394.16Z" fill="black" stroke="black" stroke-miterlimit="10"/>
<path d="M174.11 389.25C174.11 389.25 176.99 370.33 161 359.25C161 359.23 159.77 379.53 174.11 389.25Z" fill="black" stroke="black" stroke-miterlimit="10"/>
<path d="M195.52 412.28C195.52 412.28 179.26 392.47 159.05 411.38C159.05 411.38 181.94 424.52 195.52 412.28Z" fill="black" stroke="black" stroke-miterlimit="10"/>
<path d="M198.85 404.52C198.85 404.52 205.13 378.44 180.27 368.69C180.27 368.69 180.41 397.43 198.85 404.52Z" fill="black" stroke="black" stroke-miterlimit="10"/>
<path d="M229.56 424.75C229.56 424.75 205.45 409.84 189.61 435C189.61 435 213.12 448.75 229.56 424.75Z" fill="black" stroke="black" stroke-miterlimit="10"/>
<path d="M231.64 418C231.64 418 230.27 387.9 204.52 381.9C204.52 381.86 206.15 410.16 231.64 418Z" fill="black" stroke="black" stroke-miterlimit="10"/>
<path d="M270.18 430.15C270.18 430.15 237.12 417.03 227.13 453.15C227.13 453.15 258.35 461.8 270.18 430.15Z" fill="black" stroke="black" stroke-miterlimit="10"/>
<path d="M272.08 420.06C272.08 420.06 262.18 383.89 232.13 387.3C232.13 387.3 236 419.83 272.08 420.06Z" fill="black" stroke="black" stroke-miterlimit="10"/>
<path d="M312.76 417.86C312.76 417.86 296.76 384.07 264.31 393.6C264.31 393.6 279.93 428.41 312.76 417.86Z" fill="black" stroke="black" stroke-miterlimit="10"/>
<path d="M312.38 424.7C312.38 424.7 280.76 422.59 272.72 461C272.72 461 310.56 455.7 312.38 424.7Z" fill="black" stroke="black" stroke-miterlimit="10"/>
<path d="M355.29 393.93C355.29 393.93 339.29 357.73 298.68 380.81C298.68 380.81 323 413 355.29 393.93Z" fill="black" stroke="black" stroke-miterlimit="10"/>
<path d="M356.61 401.76C356.61 401.76 321.09 408.55 321.47 456.11C321.47 456.11 362.48 437.36 356.61 401.76Z" fill="black" stroke="black" stroke-miterlimit="10"/>
<path d="M361 399.23C361 399.23 374.72 393.56 376.19 392.6C377.66 391.64 366.29 416.16 372.71 433.75C372.71 433.75 405.71 417.44 399.61 377.85C399.61 377.85 409.94 368.3 412.61 363.34C412.61 363.34 411.47 390.12 418.84 402.67C418.84 402.67 441 383.12 435.48 341.58C435.48 341.58 443.79 331.23 443.6 327.42C443.6 327.42 449.38 346.42 456.71 357.42C456.71 357.42 479.46 327.19 463.71 292.64C463.71 292.64 500.93 148.72 354.8 97.55C354.8 97.55 453.12 140.36 456.01 230.4C456.01 230.4 430.6 235.89 426.32 276.4C426.32 276.4 452.32 268.01 458.49 258.4C458.49 258.4 456 273.81 453.72 278.92C453.72 278.92 409.18 276.2 402.93 314.44C402.93 314.44 427.12 318.19 448.93 297.51C448.9 297.56 432.64 350.21 361 399.23Z" fill="black" stroke="black" stroke-miterlimit="10"/>
<path d="M427 327.33C427 327.33 391.49 305.33 373.52 345.92C373.5 345.92 408.71 362.76 427 327.33Z" fill="black" stroke="black" stroke-miterlimit="10"/>
<path d="M393 365.43C393 365.43 366.86 336.12 337.62 368.9C337.63 368.9 365.11 394.25 393 365.43Z" fill="black" stroke="black" stroke-miterlimit="10"/>
<path d="M570.6 18.76L468.78 120.57" stroke="black" stroke-width="3" stroke-miterlimit="10"/>
<path d="M332.59 166.07C332.635 167.004 332.352 167.923 331.79 168.67C331.46 169.163 331.013 169.566 330.49 169.845C329.967 170.124 329.383 170.27 328.79 170.27C327.943 170.175 327.125 169.903 326.39 169.47C313.99 161.07 300.857 156.87 286.99 156.87C276.123 156.797 265.438 159.669 256.072 165.18C246.705 170.691 239.005 178.635 233.79 188.17C228.405 198.372 225.591 209.734 225.591 221.27C225.591 232.806 228.405 244.168 233.79 254.37C239.005 263.905 246.705 271.849 256.072 277.36C265.438 282.871 276.123 285.743 286.99 285.67C301.021 285.664 314.708 281.334 326.19 273.27C326.873 272.733 327.721 272.451 328.59 272.47C329.213 272.455 329.831 272.593 330.389 272.872C330.947 273.151 331.428 273.562 331.79 274.07C332.105 274.49 332.334 274.968 332.465 275.477C332.595 275.986 332.624 276.516 332.55 277.036C332.476 277.556 332.3 278.056 332.032 278.508C331.764 278.96 331.41 279.355 330.99 279.67C325.79 283.41 319.09 286.61 310.89 289.27C303.184 291.856 295.118 293.206 286.99 293.27C274.687 293.369 262.588 290.12 251.99 283.87C241.368 277.652 232.599 268.711 226.59 257.97C220.423 246.721 217.19 234.099 217.19 221.27C217.19 208.441 220.423 195.819 226.59 184.57C232.602 173.831 241.37 164.89 251.99 158.67C262.59 152.425 274.687 149.176 286.99 149.27C302.628 149.278 317.898 154.019 330.79 162.87C331.324 163.221 331.766 163.695 332.079 164.251C332.392 164.808 332.567 165.432 332.59 166.07Z" fill="black" stroke="black" stroke-miterlimit="10"/>
<path d="M58.67 513.88C59.8617 515.439 60.4639 517.37 60.37 519.33C60.37 522.877 59.34 525.413 57.28 526.94C55.0751 528.502 52.4209 529.303 49.72 529.22H37.38C37.0762 529.224 36.7748 529.166 36.4945 529.049C36.2141 528.932 35.9607 528.759 35.75 528.54C35.532 528.329 35.36 528.076 35.2447 527.795C35.1294 527.515 35.0733 527.213 35.08 526.91V497.91C35.0787 497.608 35.1373 497.308 35.2524 497.028C35.3675 496.749 35.5369 496.495 35.7507 496.281C35.9645 496.067 36.2186 495.898 36.4983 495.782C36.7779 495.667 37.0776 495.609 37.38 495.61H49.72C52.6333 495.61 54.85 496.33 56.37 497.77C57.1636 498.592 57.7764 499.571 58.169 500.644C58.5617 501.717 58.7255 502.86 58.65 504C58.6739 505.444 58.2891 506.865 57.54 508.1C56.776 509.325 55.6561 510.288 54.33 510.86C56.0328 511.437 57.5375 512.484 58.67 513.88ZM52.48 501.3C51.5351 500.474 50.3027 500.054 49.05 500.13H40V509.49H49.17C50.3814 509.495 51.5498 509.042 52.44 508.22C53.2602 507.257 53.7164 506.037 53.7292 504.773C53.742 503.508 53.3105 502.279 52.51 501.3H52.48ZM53.89 523.43C54.4435 522.908 54.8735 522.269 55.1486 521.56C55.4237 520.851 55.5369 520.089 55.48 519.33C55.48 515.777 53.48 514 49.48 514H40V524.8H49.7C51.217 524.869 52.707 524.382 53.89 523.43Z" fill="black"/>
<path d="M87.93 523.36C86.8486 525.294 85.2621 526.898 83.34 528C81.3865 529.106 79.1799 529.687 76.935 529.687C74.6901 529.687 72.4835 529.106 70.53 528C68.6053 526.892 67.0185 525.281 65.94 523.34C64.8012 521.286 64.2218 518.968 64.26 516.62C64.227 514.256 64.8057 511.924 65.94 509.85C67.0086 507.891 68.5968 506.265 70.53 505.15C72.4835 504.044 74.6901 503.463 76.935 503.463C79.1799 503.463 81.3865 504.044 83.34 505.15C85.2732 506.265 86.8615 507.891 87.93 509.85C89.0643 511.924 89.643 514.256 89.61 516.62C89.6517 518.975 89.0723 521.3 87.93 523.36ZM84 512C83.3116 510.689 82.2731 509.595 81 508.84C79.7592 508.098 78.3406 507.707 76.895 507.707C75.4494 507.707 74.0308 508.098 72.79 508.84C71.5574 509.611 70.5583 510.704 69.9 512C69.1627 513.43 68.7916 515.021 68.82 516.63C68.7927 518.216 69.1641 519.784 69.9 521.19C70.5751 522.482 71.5877 523.567 72.83 524.33C74.0708 525.072 75.4894 525.464 76.935 525.464C78.3806 525.464 79.7992 525.072 81.04 524.33C82.2921 523.574 83.3152 522.492 84 521.2C84.7359 519.794 85.1073 518.226 85.08 516.64C85.1101 515.028 84.7389 513.433 84 512Z" fill="black"/>
<path d="M115.26 504.74C115.472 504.955 115.638 505.209 115.75 505.489C115.861 505.769 115.916 506.069 115.91 506.37V519.14C115.91 522.46 114.99 525.05 113.15 526.89C111.31 528.73 108.71 529.65 105.35 529.65C101.99 529.65 99.45 528.73 97.62 526.89C95.79 525.05 94.89 522.46 94.89 519.14V506.37C94.8823 506.069 94.935 505.77 95.0449 505.49C95.1549 505.21 95.3198 504.955 95.53 504.74C95.7362 504.521 95.9859 504.347 96.2632 504.23C96.5404 504.113 96.8391 504.055 97.14 504.06C97.4489 504.051 97.7562 504.107 98.0421 504.224C98.328 504.341 98.5862 504.517 98.8 504.74C99.0116 504.955 99.1781 505.209 99.2897 505.489C99.4013 505.769 99.4558 506.069 99.45 506.37V519.14C99.45 523.333 101.417 525.427 105.35 525.42C106.162 525.478 106.978 525.368 107.745 525.096C108.513 524.824 109.216 524.396 109.81 523.84C110.925 522.539 111.478 520.849 111.35 519.14V506.37C111.344 506.069 111.399 505.769 111.51 505.489C111.622 505.209 111.788 504.955 112 504.74C112.205 504.52 112.455 504.345 112.732 504.228C113.01 504.111 113.309 504.054 113.61 504.06C113.917 504.051 114.223 504.107 114.507 504.224C114.792 504.341 115.048 504.517 115.26 504.74Z" fill="black"/>
<path d="M127 528.54C126.789 528.759 126.536 528.932 126.256 529.049C125.975 529.166 125.674 529.224 125.37 529.22C125.069 529.227 124.77 529.17 124.492 529.053C124.215 528.936 123.965 528.761 123.76 528.54C123.547 528.327 123.379 528.072 123.267 527.792C123.155 527.512 123.102 527.212 123.11 526.91V496C123.109 495.698 123.167 495.398 123.282 495.118C123.397 494.839 123.567 494.585 123.781 494.371C123.995 494.157 124.249 493.988 124.528 493.872C124.808 493.757 125.108 493.699 125.41 493.7C125.71 493.692 126.009 493.748 126.286 493.864C126.564 493.979 126.814 494.152 127.02 494.37C127.231 494.585 127.397 494.84 127.509 495.12C127.62 495.4 127.675 495.699 127.67 496V526.91C127.677 527.213 127.621 527.515 127.505 527.795C127.39 528.076 127.218 528.329 127 528.54Z" fill="black"/>
<path d="M156.92 504.38C157.14 504.603 157.311 504.869 157.423 505.162C157.535 505.455 157.585 505.767 157.57 506.08V526.91C157.578 527.212 157.525 527.512 157.413 527.792C157.301 528.072 157.133 528.327 156.92 528.54C156.708 528.763 156.452 528.939 156.167 529.056C155.883 529.173 155.577 529.229 155.27 529.22C154.968 529.232 154.667 529.18 154.386 529.068C154.105 528.956 153.851 528.786 153.64 528.57C153.43 528.349 153.266 528.089 153.158 527.804C153.049 527.518 152.999 527.215 153.01 526.91V525.66C152.097 526.852 150.933 527.829 149.6 528.52C148.189 529.292 146.608 529.697 145 529.7C142.877 529.73 140.792 529.139 139 528C137.2 526.857 135.753 525.237 134.82 523.32C133.826 521.21 133.31 518.907 133.31 516.575C133.31 514.243 133.826 511.94 134.82 509.83C135.752 507.919 137.191 506.3 138.98 505.15C140.709 504.038 142.725 503.455 144.78 503.47C146.416 503.456 148.034 503.815 149.51 504.52C150.859 505.141 152.05 506.06 152.99 507.21V506.06C152.972 505.439 153.198 504.836 153.62 504.38C153.827 504.157 154.08 503.981 154.361 503.866C154.643 503.75 154.946 503.697 155.25 503.71C155.56 503.698 155.869 503.751 156.157 503.866C156.444 503.982 156.705 504.157 156.92 504.38ZM149.48 524.32C150.666 523.533 151.613 522.437 152.22 521.15C152.865 519.725 153.198 518.179 153.198 516.615C153.198 515.051 152.865 513.505 152.22 512.08C151.607 510.791 150.661 509.69 149.48 508.89C148.298 508.099 146.902 507.688 145.48 507.71C144.062 507.691 142.671 508.091 141.48 508.86C140.296 509.649 139.349 510.745 138.74 512.03C138.094 513.464 137.76 515.018 137.76 516.59C137.76 518.162 138.094 519.717 138.74 521.15C139.347 522.437 140.294 523.533 141.48 524.32C142.68 525.069 144.066 525.467 145.48 525.467C146.894 525.467 148.28 525.069 149.48 524.32Z" fill="black"/>
<path d="M185.8 513.86V526.86C185.806 527.161 185.751 527.461 185.64 527.741C185.528 528.021 185.362 528.275 185.15 528.49C184.936 528.713 184.678 528.889 184.392 529.006C184.106 529.123 183.799 529.179 183.49 529.17C183.189 529.175 182.89 529.117 182.613 529C182.336 528.883 182.086 528.709 181.88 528.49C181.67 528.275 181.505 528.02 181.395 527.74C181.285 527.46 181.232 527.161 181.24 526.86V513.86C181.32 512.254 180.862 510.667 179.94 509.35C179.419 508.757 178.765 508.295 178.032 508.003C177.298 507.711 176.506 507.597 175.72 507.67C174.508 507.653 173.311 507.942 172.24 508.51C171.237 509.033 170.392 509.813 169.79 510.77C169.203 511.693 168.894 512.766 168.9 513.86V526.86C168.906 527.161 168.851 527.461 168.74 527.741C168.628 528.021 168.462 528.275 168.25 528.49C167.808 528.916 167.219 529.154 166.605 529.154C165.991 529.154 165.402 528.916 164.96 528.49C164.542 528.041 164.319 527.444 164.34 526.83V506.37C164.334 506.069 164.389 505.769 164.5 505.489C164.612 505.209 164.778 504.955 164.99 504.74C165.195 504.52 165.445 504.345 165.722 504.228C166 504.111 166.299 504.054 166.6 504.06C166.907 504.051 167.213 504.107 167.497 504.224C167.782 504.341 168.038 504.517 168.25 504.74C168.462 504.955 168.628 505.209 168.74 505.489C168.851 505.769 168.906 506.069 168.9 506.37V508.05C169.791 506.713 170.983 505.603 172.38 504.81C173.823 503.943 175.476 503.486 177.16 503.49C182.92 503.49 185.8 506.947 185.8 513.86Z" fill="black"/>
<path d="M215.29 504.38C215.508 504.605 215.678 504.871 215.789 505.163C215.901 505.456 215.952 505.767 215.94 506.08V527.2C216.023 529.481 215.447 531.738 214.28 533.7C213.216 535.416 211.653 536.767 209.8 537.57C207.78 538.428 205.604 538.853 203.41 538.82C201.891 538.783 200.382 538.555 198.92 538.14C197.734 537.935 196.612 537.459 195.64 536.75C194.64 536.24 194.15 535.6 194.15 534.83C194.166 534.564 194.23 534.303 194.34 534.06C194.47 533.696 194.713 533.384 195.033 533.168C195.353 532.952 195.734 532.844 196.12 532.86C196.581 532.872 197.035 532.971 197.46 533.15C199.36 533.987 201.389 534.491 203.46 534.64C205.583 534.783 207.681 534.122 209.34 532.79C210.02 532.142 210.551 531.354 210.897 530.48C211.242 529.606 211.393 528.668 211.34 527.73V525.14C210.54 526.509 209.368 527.622 207.96 528.35C206.441 529.231 204.716 529.697 202.96 529.7C200.842 529.711 198.764 529.129 196.96 528.02C195.126 526.885 193.641 525.266 192.67 523.34C191.643 521.24 191.11 518.933 191.11 516.595C191.11 514.257 191.643 511.95 192.67 509.85C193.637 507.928 195.114 506.309 196.94 505.17C198.739 504.05 200.821 503.467 202.94 503.49C204.575 503.499 206.188 503.875 207.659 504.59C209.13 505.305 210.422 506.34 211.44 507.62V506.08C211.422 505.461 211.644 504.859 212.06 504.4C212.269 504.177 212.524 504.002 212.807 503.886C213.09 503.771 213.395 503.717 213.7 503.73C213.995 503.726 214.288 503.782 214.561 503.893C214.834 504.005 215.082 504.171 215.29 504.38ZM207.68 524.38C208.912 523.617 209.903 522.521 210.54 521.22C211.233 519.791 211.576 518.218 211.54 516.63C211.576 515.052 211.233 513.488 210.54 512.07C209.891 510.774 208.903 509.678 207.68 508.9C206.427 508.147 204.992 507.75 203.53 507.75C202.068 507.75 200.633 508.147 199.38 508.9C198.151 509.684 197.161 510.791 196.52 512.1C195.842 513.516 195.49 515.065 195.49 516.635C195.49 518.205 195.842 519.754 196.52 521.17C197.162 522.476 198.151 523.58 199.38 524.36C200.617 525.134 202.051 525.533 203.51 525.51C204.984 525.529 206.431 525.123 207.68 524.34V524.38Z" fill="black"/>
<path d="M243.11 517.14C242.675 517.534 242.107 517.748 241.52 517.74H224.63C224.76 519.886 225.713 521.899 227.29 523.36C228.844 524.77 230.882 525.525 232.98 525.47C234.261 525.52 235.537 525.291 236.72 524.8C237.659 524.367 238.521 523.783 239.27 523.07C239.685 522.801 240.166 522.652 240.66 522.64C240.916 522.634 241.171 522.683 241.407 522.783C241.644 522.883 241.856 523.032 242.03 523.22C242.207 523.395 242.346 523.604 242.441 523.834C242.535 524.064 242.583 524.311 242.58 524.56C242.563 524.92 242.464 525.27 242.291 525.586C242.118 525.901 241.874 526.173 241.58 526.38C240.513 527.401 239.256 528.203 237.88 528.74C236.396 529.385 234.798 529.725 233.18 529.74C230.797 529.789 228.442 529.224 226.34 528.1C224.408 527.058 222.822 525.472 221.78 523.54C220.688 521.507 220.134 519.228 220.17 516.92C220.114 514.457 220.685 512.021 221.83 509.84C222.836 507.913 224.346 506.295 226.2 505.16C227.954 504.086 229.973 503.521 232.03 503.53C234.058 503.526 236.048 504.072 237.79 505.11C239.583 506.17 241.071 507.675 242.11 509.48C243.21 511.376 243.789 513.528 243.79 515.72C243.779 515.99 243.713 516.256 243.596 516.5C243.479 516.744 243.314 516.962 243.11 517.14ZM227.41 509.22C225.999 510.407 225.077 512.074 224.82 513.9H239V513.52C238.933 512.703 238.696 511.908 238.303 511.188C237.91 510.469 237.371 509.839 236.72 509.34C235.413 508.275 233.776 507.698 232.09 507.71C230.404 507.672 228.755 508.204 227.41 509.22Z" fill="black"/>
<path d="M263.8 504.14C264.074 504.309 264.3 504.544 264.459 504.824C264.618 505.103 264.704 505.418 264.71 505.74C264.733 506.059 264.691 506.378 264.588 506.681C264.485 506.983 264.323 507.262 264.11 507.5C263.919 507.695 263.69 507.849 263.437 507.952C263.184 508.055 262.913 508.106 262.64 508.1C262.198 508.065 261.764 507.968 261.35 507.81C260.841 507.614 260.305 507.499 259.76 507.47C258.711 507.486 257.695 507.836 256.86 508.47C255.874 509.216 255.085 510.191 254.56 511.31C253.953 512.555 253.648 513.925 253.67 515.31V526.88C253.676 527.181 253.621 527.481 253.51 527.761C253.398 528.041 253.232 528.295 253.02 528.51C252.578 528.936 251.989 529.174 251.375 529.174C250.761 529.174 250.172 528.936 249.73 528.51C249.312 528.06 249.089 527.464 249.11 526.85V506.37C249.102 506.068 249.155 505.768 249.267 505.488C249.379 505.208 249.547 504.953 249.76 504.74C249.963 504.52 250.211 504.346 250.487 504.228C250.763 504.111 251.06 504.054 251.36 504.06C251.669 504.05 251.977 504.105 252.263 504.222C252.549 504.339 252.807 504.516 253.02 504.74C253.232 504.955 253.398 505.209 253.51 505.489C253.621 505.769 253.676 506.069 253.67 506.37V508.82C254.351 507.277 255.449 505.954 256.84 505C258.248 504.019 259.923 503.492 261.64 503.49C262.411 503.469 263.169 503.697 263.8 504.14Z" fill="black"/>
<path d="M269 500.15C268.787 499.943 268.622 499.691 268.518 499.413C268.415 499.134 268.374 498.836 268.4 498.54V497.78C268.368 497.475 268.41 497.168 268.521 496.882C268.632 496.597 268.81 496.343 269.04 496.14C269.641 495.777 270.34 495.609 271.04 495.66C271.726 495.602 272.411 495.782 272.98 496.17C273.193 496.377 273.358 496.629 273.462 496.907C273.565 497.186 273.606 497.484 273.58 497.78V498.54C273.608 498.843 273.567 499.147 273.459 499.432C273.352 499.716 273.181 499.972 272.96 500.18C272.363 500.552 271.661 500.72 270.96 500.66C270.268 500.717 269.577 500.537 269 500.15ZM272.64 528.54C272.428 528.763 272.172 528.939 271.887 529.056C271.603 529.173 271.297 529.229 270.99 529.22C270.689 529.226 270.39 529.169 270.112 529.052C269.835 528.935 269.585 528.76 269.38 528.54C269.168 528.325 269.002 528.071 268.89 527.791C268.779 527.511 268.724 527.211 268.73 526.91V506.13C268.724 505.829 268.779 505.529 268.89 505.249C269.002 504.969 269.168 504.715 269.38 504.5C269.585 504.28 269.835 504.105 270.112 503.988C270.39 503.871 270.689 503.814 270.99 503.82C271.297 503.811 271.603 503.867 271.887 503.984C272.172 504.101 272.428 504.277 272.64 504.5C272.853 504.713 273.021 504.968 273.133 505.248C273.245 505.528 273.298 505.828 273.29 506.13V526.91C273.293 527.214 273.233 527.516 273.114 527.797C272.996 528.077 272.821 528.33 272.6 528.54H272.64Z" fill="black"/>
<path d="M301.19 517.14C300.755 517.534 300.187 517.748 299.6 517.74H282.71C282.84 519.886 283.793 521.899 285.37 523.36C286.924 524.77 288.962 525.525 291.06 525.47C292.34 525.52 293.617 525.291 294.8 524.8C295.739 524.367 296.601 523.783 297.35 523.07C297.765 522.801 298.246 522.652 298.74 522.64C298.996 522.634 299.251 522.683 299.487 522.783C299.723 522.883 299.936 523.032 300.11 523.22C300.287 523.395 300.426 523.604 300.521 523.834C300.615 524.064 300.663 524.311 300.66 524.56C300.643 524.92 300.544 525.27 300.371 525.586C300.198 525.901 299.954 526.173 299.66 526.38C298.593 527.401 297.336 528.203 295.96 528.74C294.476 529.385 292.878 529.725 291.26 529.74C288.877 529.789 286.522 529.224 284.42 528.1C282.488 527.058 280.902 525.472 279.86 523.54C278.768 521.507 278.214 519.228 278.25 516.92C278.215 514.436 278.817 511.985 280 509.8C281.006 507.873 282.516 506.255 284.37 505.12C286.124 504.046 288.143 503.481 290.2 503.49C292.228 503.486 294.218 504.032 295.96 505.07C297.753 506.13 299.241 507.635 300.28 509.44C301.38 511.336 301.959 513.488 301.96 515.68C301.943 515.964 301.865 516.241 301.733 516.493C301.6 516.745 301.415 516.966 301.19 517.14ZM285.49 509.22C284.079 510.407 283.157 512.074 282.9 513.9H297.06V513.52C296.993 512.703 296.756 511.908 296.363 511.188C295.97 510.469 295.431 509.839 294.78 509.34C293.473 508.275 291.836 507.698 290.15 507.71C288.471 507.676 286.83 508.208 285.49 509.22Z" fill="black"/>
<path d="M346.16 499.5C346.16 500.08 345.959 500.642 345.59 501.09C345.407 501.338 345.167 501.537 344.89 501.671C344.613 501.805 344.308 501.87 344 501.86C343.548 501.856 343.105 501.739 342.71 501.52C340.75 500.408 338.533 499.828 336.28 499.84C334.054 499.796 331.857 500.341 329.91 501.42C328.085 502.46 326.597 504.001 325.62 505.86C324.564 507.883 324.034 510.139 324.08 512.42C324.017 514.805 324.564 517.166 325.67 519.28C326.663 521.138 328.179 522.664 330.03 523.67C331.952 524.694 334.102 525.214 336.28 525.18C338.541 525.209 340.766 524.614 342.71 523.46C343.093 523.263 343.519 523.164 343.95 523.17C344.275 523.158 344.597 523.226 344.89 523.367C345.183 523.508 345.437 523.719 345.63 523.98C345.998 524.409 346.203 524.955 346.21 525.52C346.212 525.902 346.104 526.277 345.9 526.6C345.695 526.933 345.405 527.206 345.06 527.39C342.366 528.866 339.351 529.659 336.28 529.7C333.296 529.731 330.351 529.02 327.71 527.63C325.103 526.263 322.938 524.182 321.47 521.63C319.867 518.83 319.061 515.645 319.14 512.42C319.094 509.354 319.863 506.331 321.37 503.66C322.822 501.088 324.948 498.962 327.52 497.51C330.191 496.004 333.214 495.234 336.28 495.28C339.341 495.271 342.351 496.064 345.01 497.58C345.371 497.749 345.674 498.022 345.879 498.364C346.084 498.706 346.182 499.102 346.16 499.5Z" fill="black"/>
<path d="M372.08 514.1V526.91C372.088 527.212 372.035 527.512 371.923 527.792C371.811 528.072 371.643 528.327 371.43 528.54C371.218 528.763 370.962 528.939 370.677 529.056C370.393 529.173 370.087 529.229 369.78 529.22C369.479 529.226 369.18 529.169 368.902 529.052C368.625 528.935 368.375 528.76 368.17 528.54C367.958 528.325 367.792 528.071 367.68 527.791C367.569 527.511 367.514 527.211 367.52 526.91V514.1C367.52 509.94 365.76 507.86 362.24 507.86C361.376 507.833 360.516 507.978 359.709 508.287C358.902 508.597 358.165 509.063 357.54 509.66C356.934 510.227 356.454 510.916 356.132 511.681C355.81 512.446 355.652 513.27 355.67 514.1V526.91C355.676 527.211 355.621 527.511 355.51 527.791C355.398 528.071 355.232 528.325 355.02 528.54C354.806 528.763 354.548 528.939 354.262 529.056C353.976 529.173 353.669 529.229 353.36 529.22C353.058 529.231 352.757 529.178 352.477 529.066C352.196 528.954 351.942 528.785 351.73 528.57C351.521 528.349 351.359 528.088 351.252 527.803C351.146 527.518 351.097 527.214 351.11 526.91V496C351.103 495.699 351.156 495.4 351.266 495.121C351.376 494.841 351.54 494.585 351.75 494.37C351.957 494.152 352.207 493.98 352.484 493.864C352.761 493.749 353.06 493.693 353.36 493.7C353.668 493.689 353.975 493.743 354.261 493.859C354.547 493.974 354.806 494.148 355.02 494.37C355.231 494.585 355.397 494.84 355.509 495.12C355.62 495.4 355.675 495.699 355.67 496V508.14C356.531 506.857 357.669 505.784 359 505C360.379 504.137 361.973 503.68 363.6 503.68C369.26 503.647 372.087 507.12 372.08 514.1Z" fill="black"/>
<path d="M401 504.38C401.22 504.603 401.391 504.869 401.503 505.162C401.615 505.455 401.665 505.767 401.65 506.08V526.91C401.658 527.212 401.605 527.512 401.493 527.792C401.381 528.072 401.213 528.327 401 528.54C400.788 528.763 400.532 528.939 400.247 529.056C399.963 529.173 399.657 529.229 399.35 529.22C399.048 529.232 398.747 529.18 398.466 529.068C398.185 528.956 397.931 528.786 397.72 528.57C397.51 528.349 397.346 528.089 397.238 527.804C397.129 527.518 397.079 527.215 397.09 526.91V525.66C396.177 526.852 395.013 527.829 393.68 528.52C392.246 529.305 390.635 529.711 389 529.7C386.903 529.723 384.844 529.139 383.07 528.02C381.27 526.877 379.823 525.257 378.89 523.34C377.896 521.23 377.38 518.927 377.38 516.595C377.38 514.263 377.896 511.96 378.89 509.85C379.822 507.939 381.261 506.32 383.05 505.17C384.779 504.058 386.795 503.475 388.85 503.49C390.486 503.475 392.104 503.835 393.58 504.54C394.929 505.161 396.12 506.08 397.06 507.23V506.08C397.042 505.459 397.268 504.856 397.69 504.4C397.897 504.177 398.15 504.001 398.431 503.886C398.713 503.77 399.016 503.717 399.32 503.73C399.63 503.714 399.94 503.763 400.23 503.875C400.519 503.987 400.782 504.159 401 504.38ZM393.56 524.32C394.746 523.533 395.693 522.437 396.3 521.15C396.945 519.725 397.278 518.179 397.278 516.615C397.278 515.051 396.945 513.505 396.3 512.08C395.687 510.791 394.741 509.69 393.56 508.89C392.378 508.099 390.982 507.688 389.56 507.71C388.142 507.691 386.751 508.091 385.56 508.86C384.376 509.649 383.429 510.745 382.82 512.03C382.174 513.463 381.84 515.018 381.84 516.59C381.84 518.162 382.174 519.717 382.82 521.15C383.427 522.437 384.374 523.533 385.56 524.32C386.76 525.069 388.146 525.467 389.56 525.467C390.974 525.467 392.36 525.069 393.56 524.32Z" fill="black"/>
<path d="M428.53 504.42C428.727 504.6 428.885 504.819 428.991 505.064C429.098 505.309 429.152 505.573 429.15 505.84C429.117 506.257 429.005 506.665 428.82 507.04L419.7 527.78C419.518 528.179 419.236 528.524 418.88 528.78C418.545 529.031 418.147 529.184 417.73 529.22C417.238 529.282 416.739 529.18 416.31 528.93C415.862 528.664 415.511 528.261 415.31 527.78L406.21 507C406.069 506.615 405.988 506.21 405.97 505.8C405.974 505.538 406.031 505.281 406.138 505.042C406.245 504.803 406.398 504.588 406.59 504.41C406.806 504.198 407.063 504.033 407.345 503.925C407.627 503.817 407.928 503.767 408.23 503.78C408.699 503.771 409.16 503.903 409.553 504.16C409.945 504.417 410.251 504.786 410.43 505.22L417.68 522.07L424.93 505.22C425.084 504.798 425.364 504.433 425.733 504.175C426.101 503.917 426.54 503.78 426.99 503.78C427.276 503.778 427.56 503.834 427.825 503.944C428.089 504.054 428.329 504.216 428.53 504.42Z" fill="black"/>
<path d="M456.06 504.38C456.278 504.605 456.448 504.871 456.559 505.163C456.671 505.456 456.722 505.767 456.71 506.08V526.91C456.716 527.211 456.661 527.511 456.55 527.791C456.438 528.071 456.272 528.325 456.06 528.54C455.846 528.763 455.588 528.939 455.302 529.056C455.016 529.173 454.709 529.229 454.4 529.22C454.098 529.23 453.797 529.178 453.517 529.066C453.236 528.954 452.982 528.785 452.77 528.57C452.561 528.349 452.399 528.088 452.292 527.803C452.186 527.518 452.137 527.214 452.15 526.91V525.66C451.235 526.85 450.071 527.826 448.74 528.52C447.311 529.3 445.708 529.706 444.08 529.7C441.983 529.721 439.924 529.138 438.15 528.02C436.356 526.873 434.913 525.254 433.98 523.34C432.986 521.23 432.47 518.927 432.47 516.595C432.47 514.263 432.986 511.96 433.98 509.85C434.909 507.939 436.344 506.321 438.13 505.17C439.863 504.058 441.881 503.474 443.94 503.49C445.576 503.478 447.193 503.837 448.67 504.54C450.015 505.167 451.204 506.086 452.15 507.23V506.08C452.128 505.46 452.351 504.857 452.77 504.4C452.978 504.178 453.231 504.003 453.512 503.888C453.793 503.772 454.096 503.718 454.4 503.73C454.707 503.718 455.012 503.769 455.298 503.881C455.584 503.993 455.843 504.163 456.06 504.38ZM448.62 524.32C449.803 523.533 450.747 522.436 451.35 521.15C452.002 519.727 452.34 518.18 452.34 516.615C452.34 515.05 452.002 513.503 451.35 512.08C450.74 510.793 449.798 509.691 448.62 508.89C447.438 508.099 446.042 507.688 444.62 507.71C443.203 507.692 441.811 508.092 440.62 508.86C439.437 509.647 438.493 510.743 437.89 512.03C437.238 513.462 436.9 515.017 436.9 516.59C436.9 518.163 437.238 519.718 437.89 521.15C438.49 522.439 439.435 523.536 440.62 524.32C441.82 525.067 443.206 525.463 444.62 525.463C446.034 525.463 447.42 525.067 448.62 524.32Z" fill="black"/>
<path d="M484.93 513.86V526.86C484.936 527.161 484.881 527.461 484.77 527.741C484.658 528.021 484.492 528.275 484.28 528.49C484.067 528.714 483.809 528.891 483.523 529.008C483.237 529.125 482.929 529.18 482.62 529.17C482.321 529.175 482.023 529.117 481.748 529C481.472 528.883 481.224 528.709 481.02 528.49C480.807 528.277 480.639 528.022 480.527 527.742C480.415 527.462 480.362 527.162 480.37 526.86V513.86C480.455 512.253 479.997 510.665 479.07 509.35C478.549 508.757 477.895 508.295 477.162 508.003C476.428 507.711 475.636 507.597 474.85 507.67C473.638 507.653 472.441 507.942 471.37 508.51C470.367 509.033 469.522 509.813 468.92 510.77C468.333 511.693 468.024 512.766 468.03 513.86V526.86C468.038 527.161 467.985 527.46 467.875 527.74C467.765 528.02 467.6 528.275 467.39 528.49C467.176 528.713 466.918 528.888 466.632 529.005C466.346 529.122 466.039 529.178 465.73 529.17C465.428 529.182 465.127 529.13 464.846 529.018C464.565 528.906 464.311 528.736 464.1 528.52C463.89 528.299 463.726 528.039 463.618 527.754C463.509 527.469 463.459 527.165 463.47 526.86V506.37C463.464 506.069 463.519 505.769 463.63 505.489C463.742 505.209 463.908 504.955 464.12 504.74C464.325 504.52 464.575 504.345 464.852 504.228C465.13 504.111 465.429 504.054 465.73 504.06C466.039 504.052 466.346 504.108 466.632 504.225C466.918 504.342 467.176 504.517 467.39 504.74C467.6 504.955 467.765 505.21 467.875 505.49C467.985 505.77 468.038 506.069 468.03 506.37V508.05C468.926 506.717 470.117 505.609 471.51 504.81C472.953 503.943 474.606 503.486 476.29 503.49C482.05 503.49 484.93 506.947 484.93 513.86Z" fill="black"/>
<path d="M513.87 523.36C512.792 525.298 511.209 526.909 509.29 528.02C507.333 529.121 505.125 529.7 502.88 529.7C500.635 529.7 498.427 529.121 496.47 528.02C494.551 526.909 492.968 525.298 491.89 523.36C490.751 521.306 490.172 518.989 490.21 516.64C490.177 514.276 490.756 511.944 491.89 509.87C492.958 507.914 494.542 506.288 496.47 505.17C498.427 504.069 500.635 503.49 502.88 503.49C505.125 503.49 507.333 504.069 509.29 505.17C511.218 506.288 512.803 507.914 513.87 509.87C515.004 511.944 515.583 514.276 515.55 516.64C515.588 518.989 515.009 521.306 513.87 523.36ZM509.87 512.01C509.205 510.706 508.195 509.61 506.95 508.84C505.709 508.098 504.291 507.707 502.845 507.707C501.399 507.707 499.981 508.098 498.74 508.84C497.491 509.608 496.478 510.705 495.81 512.01C495.073 513.44 494.702 515.031 494.73 516.64C494.703 518.226 495.074 519.794 495.81 521.2C496.482 522.494 497.495 523.58 498.74 524.34C499.981 525.082 501.399 525.474 502.845 525.474C504.291 525.474 505.709 525.082 506.95 524.34C508.191 523.579 509.201 522.493 509.87 521.2C510.606 519.794 510.977 518.226 510.95 516.64C510.992 515.031 510.635 513.437 509.91 512L509.87 512.01Z" fill="black"/>
<path d="M542.29 513.86V526.86C542.296 527.161 542.241 527.461 542.13 527.741C542.018 528.021 541.852 528.275 541.64 528.49C541.427 528.714 541.169 528.891 540.883 529.008C540.597 529.125 540.289 529.18 539.98 529.17C539.68 529.176 539.383 529.119 539.107 529.002C538.831 528.884 538.584 528.71 538.38 528.49C538.167 528.277 537.999 528.022 537.887 527.742C537.775 527.462 537.722 527.162 537.73 526.86V513.86C537.815 512.253 537.357 510.665 536.43 509.35C535.909 508.757 535.255 508.295 534.522 508.003C533.788 507.711 532.996 507.597 532.21 507.67C530.998 507.653 529.801 507.942 528.73 508.51C527.727 509.033 526.882 509.813 526.28 510.77C525.693 511.693 525.384 512.766 525.39 513.86V526.86C525.398 527.162 525.345 527.462 525.233 527.742C525.121 528.022 524.953 528.277 524.74 528.49C524.528 528.713 524.272 528.889 523.987 529.006C523.703 529.123 523.397 529.179 523.09 529.17C522.788 529.182 522.487 529.13 522.206 529.018C521.925 528.906 521.671 528.736 521.46 528.52C521.25 528.299 521.086 528.039 520.978 527.754C520.869 527.469 520.819 527.165 520.83 526.86V506.37C520.824 506.069 520.879 505.769 520.99 505.489C521.102 505.209 521.268 504.955 521.48 504.74C521.685 504.52 521.935 504.345 522.212 504.228C522.49 504.111 522.789 504.054 523.09 504.06C523.397 504.051 523.703 504.107 523.987 504.224C524.272 504.341 524.528 504.517 524.74 504.74C524.953 504.953 525.121 505.208 525.233 505.488C525.345 505.768 525.398 506.068 525.39 506.37V508.05C526.281 506.713 527.473 505.603 528.87 504.81C530.313 503.943 531.966 503.486 533.65 503.49C539.41 503.49 542.29 506.947 542.29 513.86Z" fill="black"/>
</g>
<defs>
<clipPath id="clip0_5_286">
<rect width="571.66" height="538.82" fill="white"/>
</clipPath>
</defs>
</svg>
