<svg width="572" height="462" viewBox="0 0 572 462" fill="none" xmlns="http://www.w3.org/2000/svg">
<g clip-path="url(#clip0_4_128)">
<path d="M416.73 81.79C416.73 81.79 416.48 102.12 435.1 104.43C435.1 104.43 433.33 86.94 416.73 81.79Z" fill="black" stroke="black" stroke-miterlimit="10"/>
<path d="M403.29 67.44C403.29 67.44 415.16 81.17 429.92 70.16C429.92 70.16 417.52 58.94 403.29 67.44Z" fill="black" stroke="black" stroke-miterlimit="10"/>
<path d="M397.55 72.34C397.55 72.34 394.67 91.26 410.66 102.34C410.66 102.36 411.89 82.06 397.55 72.34Z" fill="black" stroke="black" stroke-miterlimit="10"/>
<path d="M376.14 49.31C376.14 49.31 392.4 69.13 412.61 50.21C412.61 50.21 389.72 37.07 376.14 49.31Z" fill="black" stroke="black" stroke-miterlimit="10"/>
<path d="M372.8 57.07C372.8 57.07 366.53 83.15 391.39 92.9C391.39 92.9 391.25 64.16 372.8 57.07Z" fill="black" stroke="black" stroke-miterlimit="10"/>
<path d="M342.1 36.84C342.1 36.84 366.21 51.76 382 26.55C382 26.55 358.54 12.84 342.1 36.84Z" fill="black" stroke="black" stroke-miterlimit="10"/>
<path d="M340 43.63C340 43.63 341.37 73.73 367.12 79.73C367.14 79.73 365.5 51.43 340 43.63Z" fill="black" stroke="black" stroke-miterlimit="10"/>
<path d="M301.48 31.45C301.48 31.45 334.48 44.56 344.48 8.45C344.53 8.45 313.31 -0.210003 301.48 31.45Z" fill="black" stroke="black" stroke-miterlimit="10"/>
<path d="M299.57 41.53C299.57 41.53 309.48 77.7 339.57 74.29C339.53 74.29 335.63 41.77 299.57 41.53Z" fill="black" stroke="black" stroke-miterlimit="10"/>
<path d="M258.9 43.73C258.9 43.73 274.9 77.52 307.34 67.99C307.34 68 291.72 33.18 258.9 43.73Z" fill="black" stroke="black" stroke-miterlimit="10"/>
<path d="M259.28 36.9C259.28 36.9 290.9 39 298.94 0.589996C298.94 0.589996 261.09 5.89 259.28 36.9Z" fill="black" stroke="black" stroke-miterlimit="10"/>
<path d="M216.37 67.66C216.37 67.66 232.37 103.86 272.98 80.78C273 80.78 248.64 48.63 216.37 67.66Z" fill="black" stroke="black" stroke-miterlimit="10"/>
<path d="M215.05 59.83C215.05 59.83 250.56 53.05 250.19 5.48001C250.19 5.48001 209.18 24.24 215.05 59.83Z" fill="black" stroke="black" stroke-miterlimit="10"/>
<path d="M210.69 62.36C210.69 62.36 197 68 195.5 69C194 70 205.4 45.44 198.98 27.85C198.98 27.85 165.98 44.17 172.08 83.75C172.08 83.75 161.75 93.31 159.08 98.26C159.08 98.26 160.22 71.48 152.84 58.93C152.84 58.93 130.69 78.49 136.2 120.02C136.2 120.02 127.9 130.38 128.09 134.18C128.09 134.18 122.3 115.18 114.98 104.18C114.98 104.18 92.22 134.41 107.98 168.97C107.98 168.97 70.76 312.89 216.89 364.05C216.89 364.05 118.58 321.24 115.69 231.2C115.69 231.2 141.1 225.72 145.38 185.2C145.38 185.2 119.38 193.59 113.21 203.2C113.21 203.2 115.7 187.8 117.98 182.68C117.98 182.68 162.52 185.4 168.77 147.16C168.77 147.16 144.57 143.41 122.77 164.09C122.76 164 139 111.38 210.69 62.36Z" fill="black" stroke="black" stroke-miterlimit="10"/>
<path d="M144.68 134.26C144.68 134.26 180.19 156.26 198.15 115.67C198.15 115.67 163 98.83 144.68 134.26Z" fill="black" stroke="black" stroke-miterlimit="10"/>
<path d="M178.65 96.16C178.65 96.16 204.79 125.47 234 92.7C234 92.7 206.55 67.34 178.65 96.16Z" fill="black" stroke="black" stroke-miterlimit="10"/>
<path d="M1.06 442.84L102.88 341.02" stroke="black" stroke-width="3" stroke-miterlimit="10"/>
<path d="M154.93 379.8C154.93 379.8 155.18 359.47 136.56 357.16C136.56 357.16 138.33 374.66 154.93 379.8Z" fill="black" stroke="black" stroke-miterlimit="10"/>
<path d="M168.37 394.16C168.37 394.16 156.5 380.42 141.74 391.43C141.74 391.43 154.14 402.65 168.37 394.16Z" fill="black" stroke="black" stroke-miterlimit="10"/>
<path d="M174.11 389.25C174.11 389.25 176.99 370.33 161 359.25C161 359.23 159.77 379.53 174.11 389.25Z" fill="black" stroke="black" stroke-miterlimit="10"/>
<path d="M195.52 412.28C195.52 412.28 179.26 392.47 159.05 411.38C159.05 411.38 181.94 424.52 195.52 412.28Z" fill="black" stroke="black" stroke-miterlimit="10"/>
<path d="M198.85 404.52C198.85 404.52 205.13 378.44 180.27 368.69C180.27 368.69 180.41 397.43 198.85 404.52Z" fill="black" stroke="black" stroke-miterlimit="10"/>
<path d="M229.56 424.75C229.56 424.75 205.45 409.84 189.61 435C189.61 435 213.12 448.75 229.56 424.75Z" fill="black" stroke="black" stroke-miterlimit="10"/>
<path d="M231.64 418C231.64 418 230.27 387.9 204.52 381.9C204.52 381.86 206.15 410.16 231.64 418Z" fill="black" stroke="black" stroke-miterlimit="10"/>
<path d="M270.18 430.15C270.18 430.15 237.12 417.03 227.13 453.15C227.13 453.15 258.35 461.8 270.18 430.15Z" fill="black" stroke="black" stroke-miterlimit="10"/>
<path d="M272.08 420.06C272.08 420.06 262.18 383.89 232.13 387.3C232.13 387.3 236 419.83 272.08 420.06Z" fill="black" stroke="black" stroke-miterlimit="10"/>
<path d="M312.76 417.86C312.76 417.86 296.76 384.07 264.31 393.6C264.31 393.6 279.93 428.41 312.76 417.86Z" fill="black" stroke="black" stroke-miterlimit="10"/>
<path d="M312.38 424.7C312.38 424.7 280.76 422.59 272.72 461C272.72 461 310.56 455.7 312.38 424.7Z" fill="black" stroke="black" stroke-miterlimit="10"/>
<path d="M355.29 393.93C355.29 393.93 339.29 357.73 298.68 380.81C298.68 380.81 323 413 355.29 393.93Z" fill="black" stroke="black" stroke-miterlimit="10"/>
<path d="M356.61 401.76C356.61 401.76 321.09 408.55 321.47 456.11C321.47 456.11 362.48 437.36 356.61 401.76Z" fill="black" stroke="black" stroke-miterlimit="10"/>
<path d="M361 399.23C361 399.23 374.72 393.56 376.19 392.6C377.66 391.64 366.29 416.16 372.71 433.75C372.71 433.75 405.71 417.44 399.61 377.85C399.61 377.85 409.94 368.3 412.61 363.34C412.61 363.34 411.47 390.12 418.84 402.67C418.84 402.67 441 383.12 435.48 341.58C435.48 341.58 443.79 331.23 443.6 327.42C443.6 327.42 449.38 346.42 456.71 357.42C456.71 357.42 479.46 327.19 463.71 292.64C463.71 292.64 500.93 148.72 354.8 97.55C354.8 97.55 453.12 140.36 456.01 230.4C456.01 230.4 430.6 235.89 426.32 276.4C426.32 276.4 452.32 268.01 458.49 258.4C458.49 258.4 456 273.81 453.72 278.92C453.72 278.92 409.18 276.2 402.93 314.44C402.93 314.44 427.12 318.19 448.93 297.51C448.9 297.56 432.64 350.21 361 399.23Z" fill="black" stroke="black" stroke-miterlimit="10"/>
<path d="M427 327.33C427 327.33 391.49 305.33 373.52 345.92C373.5 345.92 408.71 362.76 427 327.33Z" fill="black" stroke="black" stroke-miterlimit="10"/>
<path d="M393 365.43C393 365.43 366.86 336.12 337.62 368.9C337.63 368.9 365.11 394.25 393 365.43Z" fill="black" stroke="black" stroke-miterlimit="10"/>
<path d="M570.6 18.76L468.78 120.57" stroke="black" stroke-width="3" stroke-miterlimit="10"/>
<path d="M330.79 162.87C331.857 163.67 332.457 164.603 332.59 165.67C332.723 166.603 332.457 167.603 331.79 168.67C331.123 169.603 330.257 170.137 329.19 170.27C328.257 170.27 327.323 170.003 326.39 169.47C320.79 165.603 314.657 162.537 307.99 160.27C301.457 158.003 294.457 156.87 286.99 156.87C278.457 156.87 270.457 158.47 262.99 161.67C255.657 164.737 249.19 169.137 243.59 174.87C237.99 180.603 233.59 187.403 230.39 195.27C227.19 203.137 225.59 211.803 225.59 221.27C225.59 230.737 227.19 239.403 230.39 247.27C233.59 255.137 237.99 261.937 243.59 267.67C249.19 273.403 255.657 277.87 262.99 281.07C270.457 284.137 278.457 285.67 286.99 285.67C294.457 285.67 301.457 284.537 307.99 282.27C314.523 280.003 320.59 277.003 326.19 273.27C327.123 272.603 328.123 272.337 329.19 272.47C330.257 272.603 331.123 273.137 331.79 274.07C332.457 275.003 332.723 276.003 332.59 277.07C332.457 278.137 331.923 279.003 330.99 279.67C327.79 281.937 323.723 284.137 318.79 286.27C313.99 288.403 308.857 290.07 303.39 291.27C297.923 292.603 292.457 293.27 286.99 293.27C277.39 293.27 268.39 291.47 259.99 287.87C251.59 284.27 244.19 279.27 237.79 272.87C231.39 266.337 226.323 258.737 222.59 250.07C218.99 241.27 217.19 231.67 217.19 221.27C217.19 210.87 218.99 201.337 222.59 192.67C226.323 183.87 231.39 176.27 237.79 169.87C244.19 163.337 251.59 158.27 259.99 154.67C268.39 151.07 277.39 149.27 286.99 149.27C295.123 149.27 302.923 150.47 310.39 152.87C317.99 155.27 324.79 158.603 330.79 162.87Z" fill="black"/>
<path d="M330.79 162.87L331.09 162.47L331.08 162.463L330.79 162.87ZM332.59 165.67L332.094 165.732L332.095 165.741L332.59 165.67ZM331.79 168.67L332.197 168.961L332.206 168.948L332.214 168.935L331.79 168.67ZM329.19 170.27V170.77H329.221L329.252 170.766L329.19 170.27ZM326.39 169.47L326.106 169.881L326.123 169.894L326.142 169.904L326.39 169.47ZM307.99 160.27L307.826 160.742L307.829 160.743L307.99 160.27ZM262.99 161.67L263.183 162.131L263.187 162.13L262.99 161.67ZM243.59 174.87L243.948 175.219L243.59 174.87ZM230.39 195.27L230.853 195.458L230.39 195.27ZM243.59 267.67L243.948 267.321L243.59 267.67ZM262.99 281.07L262.79 281.528L262.8 281.533L262.99 281.07ZM307.99 282.27L307.826 281.798L307.99 282.27ZM326.19 273.27L326.467 273.686L326.474 273.682L326.481 273.677L326.19 273.27ZM329.19 272.47L329.128 272.966L329.19 272.47ZM330.99 279.67L331.279 280.078L331.281 280.077L330.99 279.67ZM318.79 286.27L318.592 285.811L318.587 285.813L318.79 286.27ZM303.39 291.27L303.283 290.781L303.272 290.784L303.39 291.27ZM259.99 287.87L259.793 288.33L259.99 287.87ZM237.79 272.87L237.433 273.22L237.436 273.224L237.79 272.87ZM222.59 250.07L222.127 250.259L222.131 250.268L222.59 250.07ZM222.59 192.67L222.13 192.475L222.128 192.478L222.59 192.67ZM237.79 169.87L238.144 170.224L238.147 170.22L237.79 169.87ZM259.99 154.67L259.793 154.21L259.99 154.67ZM310.39 152.87L310.237 153.346L310.239 153.347L310.39 152.87ZM330.49 163.27C331.476 164.009 331.981 164.831 332.094 165.732L333.086 165.608C332.932 164.376 332.237 163.331 331.09 162.47L330.49 163.27ZM332.095 165.741C332.207 166.523 331.991 167.405 331.366 168.405L332.214 168.935C332.922 167.802 333.24 166.683 333.085 165.599L332.095 165.741ZM331.383 168.379C330.792 169.208 330.046 169.659 329.128 169.774L329.252 170.766C330.467 170.614 331.455 169.999 332.197 168.961L331.383 168.379ZM329.19 169.77C328.356 169.77 327.507 169.533 326.638 169.036L326.142 169.904C327.139 170.474 328.157 170.77 329.19 170.77V169.77ZM326.674 169.059C321.035 165.165 314.86 162.078 308.151 159.797L307.829 160.743C314.454 162.996 320.545 166.042 326.106 169.881L326.674 169.059ZM308.154 159.798C301.564 157.511 294.508 156.37 286.99 156.37V157.37C294.405 157.37 301.35 158.495 307.826 160.742L308.154 159.798ZM286.99 156.37C278.392 156.37 270.325 157.982 262.793 161.21L263.187 162.13C270.588 158.958 278.521 157.37 286.99 157.37V156.37ZM262.797 161.209C255.401 164.301 248.879 168.74 243.232 174.521L243.948 175.219C249.501 169.534 255.912 165.172 263.183 162.131L262.797 161.209ZM243.232 174.521C237.584 180.303 233.15 187.159 229.927 195.082L230.853 195.458C234.03 187.648 238.396 180.904 243.948 175.219L243.232 174.521ZM229.927 195.082C226.7 203.015 225.09 211.746 225.09 221.27H226.09C226.09 211.861 227.68 203.259 230.853 195.458L229.927 195.082ZM225.09 221.27C225.09 230.794 226.7 239.525 229.927 247.458L230.853 247.082C227.68 239.281 226.09 230.679 226.09 221.27H225.09ZM229.927 247.458C233.15 255.381 237.584 262.237 243.232 268.019L243.948 267.321C238.396 261.636 234.03 254.892 230.853 247.082L229.927 247.458ZM243.232 268.019C248.877 273.799 255.397 278.302 262.79 281.528L263.19 280.612C255.916 277.438 249.503 273.008 243.948 267.321L243.232 268.019ZM262.8 281.533C270.33 284.625 278.395 286.17 286.99 286.17V285.17C278.518 285.17 270.583 283.648 263.18 280.607L262.8 281.533ZM286.99 286.17C294.508 286.17 301.564 285.029 308.154 282.742L307.826 281.798C301.35 284.045 294.405 285.17 286.99 285.17V286.17ZM308.154 282.742C314.726 280.462 320.831 277.444 326.467 273.686L325.913 272.854C320.349 276.563 314.321 279.544 307.826 281.798L308.154 282.742ZM326.481 273.677C327.319 273.078 328.195 272.849 329.128 272.966L329.252 271.974C328.052 271.824 326.927 272.129 325.899 272.863L326.481 273.677ZM329.128 272.966C330.046 273.081 330.792 273.532 331.383 274.361L332.197 273.779C331.455 272.741 330.467 272.126 329.252 271.974L329.128 272.966ZM331.383 274.361C331.982 275.199 332.211 276.075 332.094 277.008L333.086 277.132C333.236 275.932 332.931 274.807 332.197 273.779L331.383 274.361ZM332.094 277.008C331.979 277.926 331.528 278.672 330.699 279.263L331.281 280.077C332.319 279.335 332.934 278.347 333.086 277.132L332.094 277.008ZM330.701 279.262C327.538 281.503 323.504 283.687 318.592 285.811L318.988 286.729C323.943 284.586 328.042 282.371 331.279 280.078L330.701 279.262ZM318.587 285.813C313.82 287.932 308.719 289.588 303.283 290.782L303.497 291.758C308.995 290.552 314.16 288.875 318.993 286.727L318.587 285.813ZM303.272 290.784C297.843 292.108 292.416 292.77 286.99 292.77V293.77C292.498 293.77 298.004 293.098 303.508 291.756L303.272 290.784ZM286.99 292.77C277.454 292.77 268.522 290.982 260.187 287.41L259.793 288.33C268.258 291.958 277.326 293.77 286.99 293.77V292.77ZM260.187 287.41C251.845 283.835 244.498 278.871 238.144 272.516L237.436 273.224C243.882 279.669 251.335 284.705 259.793 288.33L260.187 287.41ZM238.147 272.52C231.792 266.032 226.759 258.484 223.049 249.872L222.131 250.268C225.888 258.989 230.988 266.641 237.433 273.22L238.147 272.52ZM223.053 249.881C219.48 241.146 217.69 231.611 217.69 221.27H216.69C216.69 231.729 218.5 241.394 222.127 250.259L223.053 249.881ZM217.69 221.27C217.69 210.929 219.48 201.461 223.052 192.862L222.128 192.478C218.5 201.212 216.69 210.811 216.69 221.27H217.69ZM223.05 192.865C226.76 184.121 231.791 176.576 238.144 170.224L237.436 169.516C230.989 175.964 225.887 183.619 222.13 192.475L223.05 192.865ZM238.147 170.22C244.501 163.733 251.847 158.704 260.187 155.13L259.793 154.21C251.333 157.836 243.879 162.94 237.433 169.52L238.147 170.22ZM260.187 155.13C268.522 151.558 277.454 149.77 286.99 149.77V148.77C277.326 148.77 268.258 150.582 259.793 154.21L260.187 155.13ZM286.99 149.77C295.073 149.77 302.822 150.962 310.237 153.346L310.543 152.394C303.025 149.977 295.173 148.77 286.99 148.77V149.77ZM310.239 153.347C317.794 155.732 324.546 159.043 330.5 163.277L331.08 162.463C325.034 158.163 318.186 154.808 310.541 152.393L310.239 153.347Z" fill="black"/>
</g>
<defs>
<clipPath id="clip0_4_128">
<rect width="571.66" height="461.6" fill="white"/>
</clipPath>
</defs>
</svg>
